<mxfile host="app.diagrams.net" modified="2023-08-01T09:33:51.945Z" agent="Mozilla/5.0 (Windows NT 10.0; Win64; x64) AppleWebKit/537.36 (KHTML, like Gecko) Chrome/113.0.0.0 Safari/537.36" version="21.6.5" etag="BwMyMmT23x8mkztZaV6I" type="github">
  <diagram name="第 1 页" id="2zLyjcetfCevqnvocOe1">
    <mxGraphModel>
      <root>
        <mxCell id="0" />
        <mxCell id="1" parent="0" />
      </root>
    </mxGraphModel>
  </diagram>
</mxfile>
